Coordinates
version=1
nRows=6
nColumns=34
inDegrees=yes

Units are S.I. units (second, meters, Newtons, ...)
If the header above contains a line with 'inDegrees', this indicates whether rotational values are in degrees (yes) or radians (no).

endheader
time	pelvis_tilt	pelvis_list	pelvis_rotation	pelvis_tx	pelvis_ty	pelvis_tz	hip_flexion_r	hip_adduction_r	hip_rotation_r	knee_angle_r	ankle_angle_r	subtalar_angle_r	mtp_angle_r	hip_flexion_l	hip_adduction_l	hip_rotation_l	knee_angle_l	ankle_angle_l	subtalar_angle_l	mtp_angle_l	lumbar_extension	lumbar_bending	lumbar_rotation	arm_flex_r	arm_add_r	arm_rot_r	elbow_flex_r	pro_sup_r	arm_flex_l	arm_add_l	arm_rot_l	elbow_flex_l	pro_sup_l
      0.00000000	    -12.31619970	     -1.12037680	     -1.87058126	     -9.06822644	      1.28711452	      1.01083424	    -10.37199202	     -8.07811634	     -3.20020213	      0.00000000	     24.72044205	     15.20189657	      0.00000000	     -3.82627766	      1.46335633	    -24.48914604	     16.26071192	      7.07401995	    -20.56589372	      0.00000000	     34.93088488	     -3.44002444	      2.89262469	     -9.53833480	     -7.35512269	     29.10304351	     35.40510873	     65.36344101	    -30.46180635	     -3.20291976	      5.80243484	     50.33266972	     87.34560032
      0.00416670	    -12.44562847	     -1.46457905	     -5.07050420	     -9.07257471	      1.28563422	      1.01530317	     -7.67132763	     -9.16605582	     -9.41085429	      0.00000000	     21.43410755	     25.90045961	      0.00000000	     -3.76045270	      1.24817394	    -28.12236568	     16.01526457	     15.52591645	    -18.99444083	      0.00000000	     34.71018181	     -0.10534431	      4.10070913	     -8.55957142	     -9.31711852	     30.48189569	     37.76408034	     66.41764130	    -30.04146169	     -3.43240582	      7.54915215	     50.84639023	     87.38108226
      0.00833330	    -11.90978706	     -2.75905495	     -6.24649021	     -9.07652133	      1.28370928	      1.01655144	     -7.39212042	     -8.89361400	    -11.38008169	      0.00000000	     22.50177657	     29.82660335	      0.00000000	     -4.93877306	      0.19666668	    -28.19432973	     14.23396152	     16.51381693	    -13.94362661	      0.00000000	     34.57581109	      2.52537751	      4.14087254	     -7.10795569	     -9.87286719	     32.39261678	     36.91406642	     67.46165665	    -27.89767768	     -4.28099578	     10.96497984	     49.66179565	     87.72422807
      0.01250000	    -12.18518165	     -2.77752544	     -7.43174215	     -9.08010552	      1.27983519	      1.01818945	     -6.81422875	     -9.33713487	    -11.57815461	      0.00000000	     23.26656335	     31.44146769	      0.00000000	     -5.39204129	      0.41412485	    -28.90185463	     12.82439544	     15.61546739	    -11.36610361	      0.00000000	     35.44838886	      3.50272894	      4.84006524	     -5.77962147	    -10.19723071	     35.95449158	     36.16601877	     69.01484586	    -27.34666401	     -5.11978916	     13.74341574	     50.31376520	     88.28639867
      0.01666670	    -12.54040960	     -3.00428642	     -8.58471194	     -9.08172712	      1.27813464	      1.01913695	     -6.32062584	     -9.08332590	    -11.12413667	      0.00000000	     24.17886097	     32.08036750	      0.00000000	     -5.68564989	      0.63779210	    -29.74828558	     11.58077049	     15.04402635	     -9.07146719	      0.00000000	     36.29894320	      4.86036869	      5.21109717	     -5.01702101	    -10.68348685	     38.95132800	     36.24743777	     70.38377668	    -27.43609895	     -4.82788332	     14.41393523	     50.89130589	     88.93862570
      0.02083330	    -12.67155323	     -2.94480523	     -9.59368738	     -9.08315050	      1.27702904	      1.01981798	     -6.07024857	     -9.15563633	    -10.82347665	      0.00000000	     24.70277517	     32.87593295	      0.00000000	     -5.86054888	      1.05174062	    -30.72568412	     10.90973947	     14.57537837	     -8.16682203	      0.00000000	     36.77394852	      5.74804238	      4.94744909	     -3.51315328	    -11.21463333	     43.46200424	     35.86890725	     72.38548093	    -28.09383188	     -4.01881662	     13.25766949	     51.65970161	     90.75776127
